# xmcd CD database file
#
# Track frame offsets:
#	150
#	18225
#	27000
#	43725
#	56025
#	72225
#	82425
#	103200
#	119625
#	142050
#	169350
#
# Disc length: 2660 seconds
#
# Revision: 0
# Processed by: cddbd v1.5.1PL0 Copyright (c) Steve Scherf et al.
# Submitted via: CDex 1.51
#
DISCID=a70a620b
DTITLE=安全地帯 - Memorial Collection File Disc2
DYEAR=1900
DGENRE=Pop
TTITLE0=俺はシャウト!
TTITLE1=恋はダンスではじめよう
TTITLE2=じれったい(シングル・ヴァージョン)
TTITLE3=ひとりぼっちの虹
TTITLE4=きっかけのウインク
TTITLE5=時計
TTITLE6=微笑みに乾杯
TTITLE7=ナンセンスだらけ
TTITLE8=あの頃へ
TTITLE9=地平線を見て育ちました。
TTITLE10=ひとりぼっちのエール
EXTD=
EXTT0=
EXTT1=
EXTT2=
EXTT3=
EXTT4=
EXTT5=
EXTT6=
EXTT7=
EXTT8=
EXTT9=
EXTT10=
PLAYORDER=
